<svg xmlns="http://www.w3.org/2000/svg" xmlns:xlink="http://www.w3.org/1999/xlink" width="103.931" height="47" viewBox="0 0 103.931 47">
  <defs>
    <clipPath id="clip-path">
      <rect id="Rectangle_4" data-name="Rectangle 4" width="103.931" height="37.21" fill="#00a483"/>
    </clipPath>
  </defs>
  <g id="Group_862" data-name="Group 862" transform="translate(-857 -632)">
    <g id="Group_18" data-name="Group 18" transform="translate(857 632)">
      <g id="Group_17" data-name="Group 17" clip-path="url(#clip-path)">
        <path id="Path_11" data-name="Path 11" d="M23.915,18.923,33.471,8.685a16.754,16.754,0,0,0-1.313-2.036l-6.87,7.36L23.126,11.69l6.886-7.376a15.443,15.443,0,0,0-2.917-2.057A18.708,18.708,0,0,0,17.9,0,18.708,18.708,0,0,0,8.711,2.258a16,16,0,0,0-6.4,6.468A20.225,20.225,0,0,0,0,18.606a20.224,20.224,0,0,0,2.313,9.88,16,16,0,0,0,6.4,6.468A18.709,18.709,0,0,0,17.9,37.208a18.712,18.712,0,0,0,9.192-2.254,15.63,15.63,0,0,0,4.268-3.418l-7.448-7.98a3.447,3.447,0,0,1,0-4.633m-2.889,4.35a3.914,3.914,0,0,1-6.278,0,7.484,7.484,0,0,1-1.232-4.666,7.354,7.354,0,0,1,1.262-4.667A3.856,3.856,0,0,1,17.9,12.362h0a3.856,3.856,0,0,1,3.124,1.577,7.354,7.354,0,0,1,1.262,4.667,7.353,7.353,0,0,1-1.262,4.666" transform="translate(0 0)" fill="#00a483"/>
        <path id="Path_12" data-name="Path 12" d="M99.582,44.891a22.164,22.164,0,0,0-.977-6.743l-8.752,9.377,7.169,7.681c.084-.144.166-.288.246-.435a20.223,20.223,0,0,0,2.314-9.881M95.63,48.966A1.533,1.533,0,1,1,97.159,50.6a1.587,1.587,0,0,1-1.529-1.638" transform="translate(-63.776 -26.286)" fill="#00a483"/>
        <path id="Path_13" data-name="Path 13" d="M147.716,25.416l-8.651-9.269-1.2,1.29V35.975Z" transform="translate(-97.85 -11.126)" fill="#00a483"/>
        <path id="Path_14" data-name="Path 14" d="M151.2,7.585V.89H137.86V2.472a2.974,2.974,0,0,1,3.367.668l8.651,9.27h0a3.443,3.443,0,0,1,0,4.632L137.86,29.92v7.273H151.2V22.324q0-3.6,1.772-5.021t5.557-1.416h3.785V.633a11.148,11.148,0,0,0-6.128,1.9A16.729,16.729,0,0,0,151.2,7.585M141.49,34.106l-2.162-2.317,9.175-9.831,2.162,2.32Z" transform="translate(-97.85 -0.436)" fill="#00a483"/>
        <path id="Path_15" data-name="Path 15" d="M256.473,1.461V20.706a6.189,6.189,0,0,1-1.263,4.087,4.734,4.734,0,0,1-6.938,0,6.086,6.086,0,0,1-1.292-4.087V1.461H233.7V22.509q0,7.145,3.274,11.328a10.908,10.908,0,0,0,9.1,4.184,11.63,11.63,0,0,0,6.218-1.609,12.423,12.423,0,0,0,4.176-4.183v5.535h13.336V1.461Z" transform="translate(-165.878 -1.007)" fill="#00a483"/>
      </g>
    </g>
    <path id="Path_16" data-name="Path 16" d="M4.475-25.479v-1.63H5.56c.793,0,1.131.315,1.131.815s-.338.815-1.131.815Zm4.246-.815c0-1.195-1-2.093-3.01-2.093H2.48v6.5H4.475v-2.334H5.711C7.8-24.219,8.721-25.22,8.721-26.294Zm17.334,4.409h1.995v-6.5H26.055v2.547h-3.1v-2.547H20.957v6.5h1.995v-2.677h3.1Zm22.688-3.27c0-1.954-1.855-3.325-4.188-3.325s-4.211,1.371-4.211,3.325,1.89,3.334,4.211,3.334S48.743-23.2,48.743-25.155Zm-6.357,0c0-1.158.84-1.89,2.17-1.89a1.9,1.9,0,0,1,2.158,1.89,1.915,1.915,0,0,1-2.158,1.89A1.913,1.913,0,0,1,42.385-25.155ZM66.38-28.387v4.029l-3.336-4.029H61.049v6.5h1.995V-25.9l3.336,4.011h1.995v-6.5Zm19.655,0H81.019v6.5h5.016v-1.269H83.014v-1.426h2.671V-25.8H83.014v-1.315h3.021Zm18.442,4.566c0-2.177-4.048-1.667-4.048-2.8,0-.408.362-.6.84-.593.537.009.91.259.945.676h2.158c-.082-1.241-1.283-1.945-3.068-1.945-1.715,0-2.986.685-2.986,1.917-.023,2.306,4.071,1.658,4.071,2.862,0,.38-.373.611-.957.611-.56,0-.957-.241-1.015-.741H98.295c.058,1.315,1.435,2.01,3.2,2.01C103.4-21.82,104.477-22.728,104.477-23.821Z" transform="translate(856.046 700.82)"/>
  </g>
</svg>
