<svg xmlns="http://www.w3.org/2000/svg" width="122" height="122" viewBox="0 0 122 122">
  <g id="Group_441" data-name="Group 441" transform="translate(-135 -143)">
    <circle id="Ellipse_24" data-name="Ellipse 24" cx="61" cy="61" r="61" transform="translate(135 143)" fill="#fff"/>
    <path id="user-avatar-filled" d="M60.018,2.25a57.768,57.768,0,1,0,57.768,57.768A57.768,57.768,0,0,0,60.018,2.25Zm0,20.631a18.526,18.526,0,1,1-13.144,5.426A18.57,18.57,0,0,1,60.018,22.881Zm33.01,73.943a49.226,49.226,0,0,1-66.021,0V94.433A21.457,21.457,0,0,1,47.639,72.4H72.4A21.5,21.5,0,0,1,93.028,94.308Z" transform="translate(136.027 144.027)" fill="#4e4e4e"/>
    <g id="Group_509" data-name="Group 509">
      <circle id="Ellipse_23" data-name="Ellipse 23" cx="17" cy="17" r="17" transform="translate(223 145)" fill="#efefef"/>
      <path id="photo" d="M5.254,3.678A1.57,1.57,0,0,1,3.678,5.254,1.57,1.57,0,0,1,2.1,3.678,1.57,1.57,0,0,1,3.678,2.1,1.57,1.57,0,0,1,5.254,3.678Zm8.407,3.153v3.678H2.1V8.932L4.729,6.305,6.042,7.619l4.2-4.2Zm.788-5.78H1.314a.266.266,0,0,0-.263.263V11.3a.266.266,0,0,0,.263.263H14.449a.266.266,0,0,0,.263-.263V1.314a.266.266,0,0,0-.263-.263Zm1.314.263V11.3a1.317,1.317,0,0,1-1.314,1.314H1.314a1.265,1.265,0,0,1-.928-.386A1.265,1.265,0,0,1,0,11.3V1.314A1.265,1.265,0,0,1,.386.386,1.265,1.265,0,0,1,1.314,0H14.449a1.265,1.265,0,0,1,.928.386,1.265,1.265,0,0,1,.386.928Z" transform="translate(232 156)" fill="#2c2f44"/>
    </g>
  </g>
</svg>
