<svg xmlns="http://www.w3.org/2000/svg" xmlns:xlink="http://www.w3.org/1999/xlink" width="82" height="82" viewBox="0 0 82 82">
  <defs>
    <clipPath id="clip-path">
      <rect id="Rectangle_905" data-name="Rectangle 905" width="35" height="72" transform="translate(0.067 -0.777)" fill="none"/>
    </clipPath>
  </defs>
  <g id="Group_682" data-name="Group 682" transform="translate(-705 -701)">
    <g id="Group_839" data-name="Group 839" transform="translate(299)">
      <circle id="Ellipse_26" data-name="Ellipse 26" cx="33.5" cy="33.5" r="33.5" transform="translate(407 716)" fill="rgba(0,164,131,0.2)"/>
      <circle id="Ellipse_205" data-name="Ellipse 205" cx="37.5" cy="37.5" r="37.5" transform="translate(406 708)" fill="rgba(0,164,131,0.2)"/>
      <circle id="Ellipse_206" data-name="Ellipse 206" cx="41" cy="41" r="41" transform="translate(406 701)" fill="rgba(0,164,131,0.2)"/>
    </g>
    <g id="Group_471" data-name="Group 471" transform="translate(716.934 708.777)">
      <g id="Group_468" data-name="Group 468" clip-path="url(#clip-path)">
        <path id="Path_834" data-name="Path 834" d="M34.544,11.2h-.067v-7a4.2,4.2,0,0,0-4.2-4.2H4.816a4.2,4.2,0,0,0-4.2,4.2v7H.548A.548.548,0,0,0,0,11.746v4.84a.548.548,0,0,0,.548.548H.615v1.154H.548A.548.548,0,0,0,0,18.837v4.84a.548.548,0,0,0,.548.548H.615V66.611a4.2,4.2,0,0,0,4.2,4.2H30.277a4.2,4.2,0,0,0,4.2-4.2V20.1h.067a.548.548,0,0,0,.548-.548V11.746a.548.548,0,0,0-.548-.548" fill="#333343"/>
        <path id="Path_835" data-name="Path 835" d="M83.716,100.234H59.122a3.412,3.412,0,0,1-3.412-3.412V34.912A3.412,3.412,0,0,1,59.122,31.5H83.716a3.412,3.412,0,0,1,3.412,3.412v61.91a3.412,3.412,0,0,1-3.412,3.412" transform="translate(-53.873 -30.461)" fill="#fff"/>
        <path id="Path_836" data-name="Path 836" d="M159.922,161.977H157.91a.082.082,0,1,1,0-.165h2.012a.082.082,0,0,1,0,.165" transform="translate(-152.623 -156.475)" fill="#3e3d51"/>
        <path id="Path_837" data-name="Path 837" d="M159.922,184.477H157.91a.082.082,0,1,1,0-.165h2.012a.082.082,0,0,1,0,.165" transform="translate(-152.623 -178.233)" fill="#3e3d51"/>
        <path id="Path_838" data-name="Path 838" d="M159.922,206.977H157.91a.082.082,0,1,1,0-.165h2.012a.082.082,0,0,1,0,.165" transform="translate(-152.623 -199.991)" fill="#3e3d51"/>
        <path id="Path_844" data-name="Path 844" d="M456.039,1927a.5.5,0,1,0,.5.5.5.5,0,0,0-.5-.5" transform="translate(-440.511 -1863.444)" fill="#8282a8"/>
        <path id="Path_845" data-name="Path 845" d="M517.228,1928.233a.5.5,0,1,1,.5-.5.5.5,0,0,1-.5.5m0-.843a.339.339,0,1,0,.339.339.34.34,0,0,0-.339-.339" transform="translate(-499.682 -1863.662)" fill="#8282a8"/>
        <path id="Path_846" data-name="Path 846" d="M578.418,1928.456a.5.5,0,1,1,.5-.5.5.5,0,0,1-.5.5m0-.843a.339.339,0,1,0,.339.339.339.339,0,0,0-.339-.339" transform="translate(-558.854 -1863.878)" fill="#8282a8"/>
        <path id="Path_855" data-name="Path 855" d="M164.491,1648.582h.37a.537.537,0,0,1,.247.055.406.406,0,0,1,.167.155.469.469,0,0,1,0,.458.4.4,0,0,1-.167.155.531.531,0,0,1-.247.055h-.37Zm.362.768a.409.409,0,0,0,.187-.041.3.3,0,0,0,.125-.116.361.361,0,0,0,0-.345.3.3,0,0,0-.125-.116.406.406,0,0,0-.187-.041h-.237v.659Z" transform="translate(-159.066 -1594.209)" fill="#8282a8"/>
        <path id="Path_856" data-name="Path 856" d="M193.652,1655.485a.317.317,0,0,1-.123-.121.366.366,0,0,1,0-.35.314.314,0,0,1,.123-.12.387.387,0,0,1,.355,0,.316.316,0,0,1,.123.12.366.366,0,0,1,0,.35.319.319,0,0,1-.123.121.383.383,0,0,1-.355,0m.293-.091a.21.21,0,0,0,.08-.083.273.273,0,0,0,0-.244.2.2,0,0,0-.08-.082.241.241,0,0,0-.229,0,.206.206,0,0,0-.08.082.268.268,0,0,0,0,.244.214.214,0,0,0,.08.083.237.237,0,0,0,.229,0" transform="translate(-187.103 -1600.271)" fill="#8282a8"/>
        <rect id="Rectangle_900" data-name="Rectangle 900" width="0.12" height="0.93" transform="translate(7.239 54.32)" fill="#8282a8"/>
        <path id="Path_857" data-name="Path 857" d="M228.384,1655.485a.317.317,0,0,1-.123-.121.366.366,0,0,1,0-.35.314.314,0,0,1,.123-.12.387.387,0,0,1,.355,0,.316.316,0,0,1,.123.12.366.366,0,0,1,0,.35.319.319,0,0,1-.123.121.383.383,0,0,1-.355,0m.293-.091a.21.21,0,0,0,.08-.083.274.274,0,0,0,0-.244.2.2,0,0,0-.08-.082.241.241,0,0,0-.229,0,.206.206,0,0,0-.08.082.268.268,0,0,0,0,.244.214.214,0,0,0,.08.083.237.237,0,0,0,.229,0" transform="translate(-220.689 -1600.271)" fill="#8282a8"/>
        <path id="Path_858" data-name="Path 858" d="M254.415,1654.882a.337.337,0,0,1,.149-.03v.117h-.028a.2.2,0,0,0-.154.058.231.231,0,0,0-.056.166v.331h-.12v-.664h.115v.112a.2.2,0,0,1,.093-.088" transform="translate(-245.823 -1600.273)" fill="#8282a8"/>
        <path id="Path_859" data-name="Path 859" d="M277.581,1655.507a.346.346,0,0,1-.118-.056l.05-.1a.355.355,0,0,0,.107.05.441.441,0,0,0,.127.019q.158,0,.158-.091a.058.058,0,0,0-.021-.047.137.137,0,0,0-.053-.026c-.021-.005-.052-.011-.091-.018a.934.934,0,0,1-.131-.029.2.2,0,0,1-.087-.055.153.153,0,0,1-.036-.109.17.17,0,0,1,.075-.145.335.335,0,0,1,.2-.055.562.562,0,0,1,.133.016.357.357,0,0,1,.109.044l-.051.1a.345.345,0,0,0-.192-.053.223.223,0,0,0-.117.025.076.076,0,0,0-.04.067.063.063,0,0,0,.023.051.147.147,0,0,0,.056.028c.022.006.053.012.093.02a1.018,1.018,0,0,1,.13.03.193.193,0,0,1,.085.053.149.149,0,0,1,.035.105.166.166,0,0,1-.077.144.363.363,0,0,1-.21.053.564.564,0,0,1-.157-.022" transform="translate(-268.312 -1600.271)" fill="#8282a8"/>
        <path id="Path_860" data-name="Path 860" d="M298.423,1646.55a.074.074,0,0,1-.023-.055.077.077,0,0,1,.023-.056.079.079,0,0,1,.058-.023.082.082,0,0,1,.058.022.072.072,0,0,1,.023.055.077.077,0,0,1-.023.057.078.078,0,0,1-.058.023.081.081,0,0,1-.058-.022m0,.15h.12v.664h-.12Z" transform="translate(-288.558 -1592.115)" fill="#8282a8"/>
        <path id="Path_861" data-name="Path 861" d="M307.229,1651.406a.179.179,0,0,1-.065.034.268.268,0,0,1-.08.012.213.213,0,0,1-.155-.054.205.205,0,0,1-.055-.154v-.365h-.113v-.1h.113v-.145h.12v.145h.191v.1h-.191v.36a.117.117,0,0,0,.027.083.1.1,0,0,0,.077.029.144.144,0,0,0,.094-.031Z" transform="translate(-296.643 -1596.194)" fill="#8282a8"/>
        <path id="Path_862" data-name="Path 862" d="M334.547,1654.92a.262.262,0,0,1,.073.2v.4h-.114v-.088a.189.189,0,0,1-.086.071.327.327,0,0,1-.132.024.277.277,0,0,1-.179-.054.172.172,0,0,1-.067-.141.175.175,0,0,1,.064-.141.317.317,0,0,1,.2-.053h.19v-.024a.154.154,0,0,0-.045-.119.192.192,0,0,0-.133-.041.352.352,0,0,0-.115.02.292.292,0,0,0-.1.052l-.05-.09a.364.364,0,0,1,.123-.063.513.513,0,0,1,.152-.022.3.3,0,0,1,.211.068m-.12.487a.175.175,0,0,0,.073-.087v-.093h-.185q-.153,0-.153.1a.093.093,0,0,0,.039.079.179.179,0,0,0,.108.029.223.223,0,0,0,.119-.031" transform="translate(-323.026 -1600.273)" fill="#8282a8"/>
        <path id="Path_863" data-name="Path 863" d="M359.354,1654.925a.291.291,0,0,1,.073.216v.382h-.12v-.368a.21.21,0,0,0-.044-.146.164.164,0,0,0-.127-.049.19.19,0,0,0-.145.057.229.229,0,0,0-.054.164v.342h-.12v-.368a.21.21,0,0,0-.045-.146.163.163,0,0,0-.127-.049.19.19,0,0,0-.145.057.229.229,0,0,0-.054.164v.342h-.12v-.664h.115v.1a.235.235,0,0,1,.1-.078.321.321,0,0,1,.134-.027.293.293,0,0,1,.138.031.217.217,0,0,1,.093.091.255.255,0,0,1,.1-.09.344.344,0,0,1,.151-.032.269.269,0,0,1,.2.073" transform="translate(-346.506 -1600.273)" fill="#8282a8"/>
        <path id="Path_864" data-name="Path 864" d="M397.4,1655.229h-.539a.208.208,0,0,0,.077.141.252.252,0,0,0,.164.053.247.247,0,0,0,.192-.08l.066.078a.289.289,0,0,1-.112.08.387.387,0,0,1-.15.028.392.392,0,0,1-.187-.043.307.307,0,0,1-.126-.121.346.346,0,0,1-.044-.175.352.352,0,0,1,.043-.174.309.309,0,0,1,.119-.121.339.339,0,0,1,.171-.043.333.333,0,0,1,.17.043.3.3,0,0,1,.117.121.368.368,0,0,1,.042.178.334.334,0,0,1,0,.036m-.471-.224a.211.211,0,0,0-.068.138h.426a.214.214,0,0,0-.068-.137.224.224,0,0,0-.289,0" transform="translate(-383.657 -1600.271)" fill="#8282a8"/>
        <path id="Path_865" data-name="Path 865" d="M419.441,1651.406a.179.179,0,0,1-.065.034.269.269,0,0,1-.08.012.213.213,0,0,1-.155-.054.205.205,0,0,1-.055-.154v-.365h-.113v-.1h.113v-.145h.12v.145h.19v.1h-.19v.36a.117.117,0,0,0,.027.083.1.1,0,0,0,.077.029.144.144,0,0,0,.094-.031Z" transform="translate(-405.154 -1596.194)" fill="#8282a8"/>
        <path id="Path_866" data-name="Path 866" d="M436.479,1670.228a.086.086,0,0,1,.023.061.15.15,0,0,1,0,.037c0,.012-.009.03-.017.054l-.059.174h-.079l.046-.187a.078.078,0,0,1-.038-.03.082.082,0,0,1-.014-.048.083.083,0,0,1,.024-.061.082.082,0,0,1,.06-.024.078.078,0,0,1,.058.024" transform="translate(-421.946 -1615.118)" fill="#8282a8"/>
        <path id="Path_867" data-name="Path 867" d="M455.127,1655.485a.321.321,0,0,1-.125-.121.361.361,0,0,1,0-.35.318.318,0,0,1,.125-.12.373.373,0,0,1,.181-.043.348.348,0,0,1,.161.036.258.258,0,0,1,.11.105l-.091.059a.206.206,0,0,0-.078-.072.225.225,0,0,0-.1-.024.237.237,0,0,0-.117.029.2.2,0,0,0-.081.082.247.247,0,0,0-.029.122.251.251,0,0,0,.029.124.206.206,0,0,0,.081.082.237.237,0,0,0,.117.029.219.219,0,0,0,.1-.024.2.2,0,0,0,.078-.071l.091.058a.263.263,0,0,1-.11.106.342.342,0,0,1-.161.037.371.371,0,0,1-.181-.044" transform="translate(-439.952 -1600.271)" fill="#8282a8"/>
        <path id="Path_868" data-name="Path 868" d="M476.517,1655.485a.318.318,0,0,1-.123-.121.366.366,0,0,1,0-.35.315.315,0,0,1,.123-.12.387.387,0,0,1,.355,0,.316.316,0,0,1,.123.12.365.365,0,0,1,0,.35.319.319,0,0,1-.123.121.383.383,0,0,1-.355,0m.293-.091a.21.21,0,0,0,.08-.083.273.273,0,0,0,0-.244.2.2,0,0,0-.08-.082.241.241,0,0,0-.229,0,.206.206,0,0,0-.08.082.269.269,0,0,0,0,.244.215.215,0,0,0,.08.083.237.237,0,0,0,.229,0" transform="translate(-460.638 -1600.271)" fill="#8282a8"/>
        <path id="Path_869" data-name="Path 869" d="M502.9,1654.924a.287.287,0,0,1,.075.215v.383h-.12v-.369a.2.2,0,0,0-.046-.145.174.174,0,0,0-.133-.049.208.208,0,0,0-.154.057.223.223,0,0,0-.056.164v.342h-.12v-.664h.115v.1a.235.235,0,0,1,.1-.079.341.341,0,0,1,.141-.028.274.274,0,0,1,.2.073" transform="translate(-485.774 -1600.271)" fill="#8282a8"/>
        <path id="Path_870" data-name="Path 870" d="M525.792,1655.507a.346.346,0,0,1-.118-.056l.05-.1a.357.357,0,0,0,.107.05.442.442,0,0,0,.127.019q.158,0,.158-.091a.058.058,0,0,0-.021-.047.137.137,0,0,0-.053-.026c-.021-.005-.052-.011-.091-.018a.933.933,0,0,1-.131-.029.2.2,0,0,1-.087-.055.153.153,0,0,1-.036-.109.17.17,0,0,1,.075-.145.335.335,0,0,1,.2-.055.563.563,0,0,1,.133.016.356.356,0,0,1,.109.044l-.051.1a.345.345,0,0,0-.192-.053.223.223,0,0,0-.117.025.076.076,0,0,0-.04.067.063.063,0,0,0,.023.051.147.147,0,0,0,.056.028c.022.006.053.012.093.02a1.016,1.016,0,0,1,.13.03.194.194,0,0,1,.085.053.149.149,0,0,1,.035.105.166.166,0,0,1-.077.144.363.363,0,0,1-.21.053.565.565,0,0,1-.157-.022" transform="translate(-508.336 -1600.271)" fill="#8282a8"/>
        <path id="Path_871" data-name="Path 871" d="M546.053,1655.229h-.539a.208.208,0,0,0,.077.141.252.252,0,0,0,.164.053.247.247,0,0,0,.192-.08l.066.078a.29.29,0,0,1-.112.08.387.387,0,0,1-.15.028.392.392,0,0,1-.187-.043.307.307,0,0,1-.126-.121.346.346,0,0,1-.044-.175.351.351,0,0,1,.043-.174.308.308,0,0,1,.119-.121.339.339,0,0,1,.171-.043.333.333,0,0,1,.17.043.3.3,0,0,1,.117.121.368.368,0,0,1,.042.178.35.35,0,0,1,0,.036m-.471-.224a.211.211,0,0,0-.068.138h.426a.214.214,0,0,0-.068-.137.224.224,0,0,0-.289,0" transform="translate(-527.406 -1600.271)" fill="#8282a8"/>
        <path id="Path_872" data-name="Path 872" d="M568.821,1655.485a.321.321,0,0,1-.125-.121.361.361,0,0,1,0-.35.317.317,0,0,1,.125-.12.373.373,0,0,1,.181-.043.348.348,0,0,1,.161.036.259.259,0,0,1,.11.105l-.092.059a.206.206,0,0,0-.078-.072.224.224,0,0,0-.1-.024.238.238,0,0,0-.117.029.2.2,0,0,0-.081.082.247.247,0,0,0-.029.122.251.251,0,0,0,.029.124.207.207,0,0,0,.081.082.238.238,0,0,0,.117.029.218.218,0,0,0,.1-.024.2.2,0,0,0,.078-.071l.092.058a.264.264,0,0,1-.11.106.342.342,0,0,1-.161.037.37.37,0,0,1-.181-.044" transform="translate(-549.896 -1600.271)" fill="#8282a8"/>
        <path id="Path_873" data-name="Path 873" d="M590.058,1651.406a.181.181,0,0,1-.065.034.268.268,0,0,1-.08.012.213.213,0,0,1-.155-.054.2.2,0,0,1-.055-.154v-.365h-.113v-.1h.113v-.145h.12v.145h.191v.1h-.191v.36a.117.117,0,0,0,.027.083.1.1,0,0,0,.077.029.145.145,0,0,0,.094-.031Z" transform="translate(-570.143 -1596.194)" fill="#8282a8"/>
        <path id="Path_874" data-name="Path 874" d="M606.321,1655.229h-.539a.209.209,0,0,0,.077.141.252.252,0,0,0,.164.053.246.246,0,0,0,.192-.08l.066.078a.289.289,0,0,1-.112.08.387.387,0,0,1-.15.028.393.393,0,0,1-.187-.043.308.308,0,0,1-.126-.121.347.347,0,0,1-.044-.175.351.351,0,0,1,.043-.174.308.308,0,0,1,.119-.121.339.339,0,0,1,.171-.043.332.332,0,0,1,.17.043.3.3,0,0,1,.117.121.368.368,0,0,1,.042.178.347.347,0,0,1,0,.036m-.471-.224a.211.211,0,0,0-.068.138h.426a.214.214,0,0,0-.068-.137.224.224,0,0,0-.289,0" transform="translate(-585.686 -1600.271)" fill="#8282a8"/>
        <path id="Path_875" data-name="Path 875" d="M628.361,1651.406a.18.18,0,0,1-.065.034.269.269,0,0,1-.08.012.213.213,0,0,1-.155-.054.2.2,0,0,1-.055-.154v-.365h-.113v-.1H628v-.145h.12v.145h.191v.1h-.191v.36a.117.117,0,0,0,.027.083.1.1,0,0,0,.077.029.145.145,0,0,0,.094-.031Z" transform="translate(-607.183 -1596.194)" fill="#8282a8"/>
        <path id="Path_876" data-name="Path 876" d="M646.946,1655.042v.664h-.114v-.1a.242.242,0,0,1-.1.079.3.3,0,0,1-.13.028.289.289,0,0,1-.209-.073.285.285,0,0,1-.076-.216v-.382h.12v.368a.206.206,0,0,0,.046.146.172.172,0,0,0,.133.05.2.2,0,0,0,.15-.058.226.226,0,0,0,.055-.163v-.344Z" transform="translate(-625.004 -1600.456)" fill="#8282a8"/>
        <path id="Path_877" data-name="Path 877" d="M672.445,1654.882a.337.337,0,0,1,.149-.03v.117h-.028a.2.2,0,0,0-.154.058.23.23,0,0,0-.056.166v.331h-.12v-.664h.115v.112a.205.205,0,0,1,.093-.088" transform="translate(-650.066 -1600.273)" fill="#8282a8"/>
        <path id="Path_878" data-name="Path 878" d="M696.984,1654.92a.262.262,0,0,1,.073.2v.4h-.114v-.088a.189.189,0,0,1-.086.071.327.327,0,0,1-.132.024.277.277,0,0,1-.179-.054.173.173,0,0,1-.067-.141.175.175,0,0,1,.064-.141.317.317,0,0,1,.2-.053h.19v-.024a.154.154,0,0,0-.045-.119.192.192,0,0,0-.133-.041.351.351,0,0,0-.115.02.29.29,0,0,0-.1.052l-.05-.09a.366.366,0,0,1,.123-.063.513.513,0,0,1,.152-.022.3.3,0,0,1,.211.068m-.12.487a.175.175,0,0,0,.073-.087v-.093h-.185q-.153,0-.153.1a.093.093,0,0,0,.039.079.178.178,0,0,0,.108.029.224.224,0,0,0,.119-.031" transform="translate(-673.509 -1600.273)" fill="#8282a8"/>
        <path id="Path_879" data-name="Path 879" d="M719.7,1646.986v.93h-.115v-.105a.261.261,0,0,1-.1.084.31.31,0,0,1-.135.029.35.35,0,0,1-.173-.043.306.306,0,0,1-.12-.12.358.358,0,0,1-.043-.177.353.353,0,0,1,.043-.177.306.306,0,0,1,.12-.119.35.35,0,0,1,.173-.043.316.316,0,0,1,.132.027.255.255,0,0,1,.1.079v-.366Zm-.228.8a.207.207,0,0,0,.08-.083.273.273,0,0,0,0-.244.2.2,0,0,0-.08-.082.24.24,0,0,0-.229,0,.209.209,0,0,0-.08.082.268.268,0,0,0,0,.244.212.212,0,0,0,.08.083.236.236,0,0,0,.229,0" transform="translate(-695.299 -1592.666)" fill="#8282a8"/>
        <path id="Path_880" data-name="Path 880" d="M746.167,1646.55a.074.074,0,0,1-.023-.055.077.077,0,0,1,.023-.056.08.08,0,0,1,.058-.023.082.082,0,0,1,.058.022.072.072,0,0,1,.023.055.077.077,0,0,1-.023.057.078.078,0,0,1-.058.023.081.081,0,0,1-.058-.022m0,.15h.12v.664h-.12Z" transform="translate(-721.535 -1592.115)" fill="#8282a8"/>
        <path id="Path_881" data-name="Path 881" d="M757.917,1654.894a.307.307,0,0,1,.12.119.384.384,0,0,1,0,.354.305.305,0,0,1-.12.12.35.35,0,0,1-.173.042.305.305,0,0,1-.131-.028.271.271,0,0,1-.1-.08v.343h-.12v-.907h.115v.105a.255.255,0,0,1,.1-.083.323.323,0,0,1,.135-.028.348.348,0,0,1,.173.043m-.068.5a.214.214,0,0,0,.08-.083.268.268,0,0,0,0-.244.206.206,0,0,0-.08-.082.228.228,0,0,0-.115-.029.223.223,0,0,0-.113.03.212.212,0,0,0-.08.082.246.246,0,0,0-.029.122.254.254,0,0,0,.029.122.208.208,0,0,0,.08.083.236.236,0,0,0,.229,0" transform="translate(-732.412 -1600.271)" fill="#8282a8"/>
        <path id="Path_882" data-name="Path 882" d="M782.685,1646.55a.074.074,0,0,1-.023-.055.076.076,0,0,1,.023-.056.079.079,0,0,1,.058-.023.082.082,0,0,1,.058.022.073.073,0,0,1,.023.055.077.077,0,0,1-.023.057.078.078,0,0,1-.058.023.081.081,0,0,1-.058-.022m0,.15h.12v.664h-.12Z" transform="translate(-756.849 -1592.115)" fill="#8282a8"/>
        <path id="Path_883" data-name="Path 883" d="M791.483,1655.507a.345.345,0,0,1-.118-.056l.05-.1a.354.354,0,0,0,.107.05.441.441,0,0,0,.126.019q.158,0,.158-.091a.058.058,0,0,0-.021-.047.136.136,0,0,0-.053-.026c-.021-.005-.052-.011-.091-.018a.929.929,0,0,1-.131-.029.2.2,0,0,1-.087-.055.153.153,0,0,1-.036-.109.17.17,0,0,1,.075-.145.335.335,0,0,1,.2-.055.563.563,0,0,1,.133.016.356.356,0,0,1,.109.044l-.051.1a.346.346,0,0,0-.192-.053.223.223,0,0,0-.117.025.076.076,0,0,0-.04.067.063.063,0,0,0,.022.051.148.148,0,0,0,.056.028c.022.006.053.012.093.02a1.015,1.015,0,0,1,.13.03.193.193,0,0,1,.085.053.149.149,0,0,1,.035.105.166.166,0,0,1-.077.144.363.363,0,0,1-.21.053.564.564,0,0,1-.157-.022" transform="translate(-765.265 -1600.271)" fill="#8282a8"/>
        <path id="Path_884" data-name="Path 884" d="M811.256,1655.485a.321.321,0,0,1-.125-.121.361.361,0,0,1,0-.35.318.318,0,0,1,.125-.12.374.374,0,0,1,.181-.043.349.349,0,0,1,.161.036.258.258,0,0,1,.11.105l-.091.059a.207.207,0,0,0-.078-.072.225.225,0,0,0-.1-.024.237.237,0,0,0-.117.029.2.2,0,0,0-.081.082.247.247,0,0,0-.029.122.251.251,0,0,0,.029.124.206.206,0,0,0,.081.082.237.237,0,0,0,.117.029.219.219,0,0,0,.1-.024.2.2,0,0,0,.078-.071l.091.058a.263.263,0,0,1-.11.106.343.343,0,0,1-.161.037.371.371,0,0,1-.181-.044" transform="translate(-784.335 -1600.271)" fill="#8282a8"/>
        <path id="Path_885" data-name="Path 885" d="M834.023,1646.55a.074.074,0,0,1-.023-.055.077.077,0,0,1,.023-.056.08.08,0,0,1,.058-.023.082.082,0,0,1,.058.022.072.072,0,0,1,.023.055.077.077,0,0,1-.023.057.078.078,0,0,1-.058.023.081.081,0,0,1-.058-.022m0,.15h.12v.664h-.12Z" transform="translate(-806.493 -1592.115)" fill="#8282a8"/>
        <path id="Path_886" data-name="Path 886" d="M845.8,1654.924a.287.287,0,0,1,.075.215v.383h-.12v-.369a.2.2,0,0,0-.046-.145.174.174,0,0,0-.133-.049.208.208,0,0,0-.154.057.223.223,0,0,0-.056.164v.342h-.12v-.664h.115v.1a.234.234,0,0,1,.1-.079.341.341,0,0,1,.141-.028.274.274,0,0,1,.2.073" transform="translate(-817.371 -1600.271)" fill="#8282a8"/>
        <path id="Path_887" data-name="Path 887" d="M870.074,1654.857v.574a.344.344,0,0,1-.087.258.359.359,0,0,1-.258.083.619.619,0,0,1-.179-.026.353.353,0,0,1-.138-.073l.058-.093a.337.337,0,0,0,.115.063.438.438,0,0,0,.141.023.236.236,0,0,0,.172-.055.227.227,0,0,0,.056-.168v-.052a.263.263,0,0,1-.1.077.344.344,0,0,1-.135.026.363.363,0,0,1-.172-.041.3.3,0,0,1-.121-.114.341.341,0,0,1,0-.334.3.3,0,0,1,.121-.114.369.369,0,0,1,.172-.04.35.35,0,0,1,.14.028.259.259,0,0,1,.106.082v-.1Zm-.229.5a.2.2,0,0,0,.081-.077.213.213,0,0,0,.03-.112.2.2,0,0,0-.064-.156.258.258,0,0,0-.33,0,.2.2,0,0,0-.064.156.215.215,0,0,0,.029.112.2.2,0,0,0,.081.077.248.248,0,0,0,.119.028.244.244,0,0,0,.117-.028" transform="translate(-840.704 -1600.271)" fill="#8282a8"/>
        <path id="Path_888" data-name="Path 888" d="M162.755,1710.229h-.539a.208.208,0,0,0,.077.141.252.252,0,0,0,.164.053.247.247,0,0,0,.192-.08l.066.078a.3.3,0,0,1-.112.08.4.4,0,0,1-.15.027.392.392,0,0,1-.187-.043.308.308,0,0,1-.126-.121.347.347,0,0,1-.044-.176.354.354,0,0,1,.043-.174.31.31,0,0,1,.119-.121.339.339,0,0,1,.171-.043.333.333,0,0,1,.17.043.3.3,0,0,1,.117.121.37.37,0,0,1,.042.178.355.355,0,0,1,0,.036m-.471-.224a.212.212,0,0,0-.068.138h.426a.213.213,0,0,0-.068-.137.225.225,0,0,0-.29,0" transform="translate(-156.75 -1653.458)" fill="#8282a8"/>
        <rect id="Rectangle_901" data-name="Rectangle 901" width="0.12" height="0.93" transform="translate(6.175 56.134)" fill="#8282a8"/>
        <path id="Path_889" data-name="Path 889" d="M197.193,1701.55a.074.074,0,0,1-.023-.055.075.075,0,0,1,.023-.056.078.078,0,0,1,.058-.023.081.081,0,0,1,.058.022.072.072,0,0,1,.023.054.078.078,0,0,1-.023.057.085.085,0,0,1-.117,0m0,.15h.12v.664h-.12Z" transform="translate(-190.667 -1645.301)" fill="#8282a8"/>
        <path id="Path_890" data-name="Path 890" d="M206,1706.406a.18.18,0,0,1-.065.034.269.269,0,0,1-.08.012.213.213,0,0,1-.155-.054.205.205,0,0,1-.055-.154v-.365h-.113v-.1h.113v-.145h.12v.145h.19v.1h-.19v.36a.117.117,0,0,0,.027.083.1.1,0,0,0,.077.029.146.146,0,0,0,.094-.031Z" transform="translate(-198.75 -1649.38)" fill="#8282a8"/>
        <path id="Path_891" data-name="Path 891" d="M223.037,1725.229a.084.084,0,0,1,.023.061.15.15,0,0,1,0,.036c0,.011-.009.03-.017.054l-.059.174H222.9l.046-.187a.079.079,0,0,1-.038-.029.09.09,0,0,1,.009-.11.081.081,0,0,1,.06-.024.077.077,0,0,1,.058.024" transform="translate(-215.544 -1668.304)" fill="#8282a8"/>
        <path id="Path_892" data-name="Path 892" d="M240.948,1710.507a.346.346,0,0,1-.118-.056l.05-.1a.361.361,0,0,0,.107.05.441.441,0,0,0,.127.019q.158,0,.158-.09a.058.058,0,0,0-.021-.047.137.137,0,0,0-.053-.026c-.021-.005-.052-.011-.091-.018a.9.9,0,0,1-.131-.029.2.2,0,0,1-.087-.055.153.153,0,0,1-.036-.109.17.17,0,0,1,.075-.145.337.337,0,0,1,.2-.055.562.562,0,0,1,.133.016.357.357,0,0,1,.109.044l-.051.1a.345.345,0,0,0-.192-.053.221.221,0,0,0-.117.025.076.076,0,0,0-.04.066.063.063,0,0,0,.023.051.144.144,0,0,0,.056.028c.022.006.053.013.093.02a1.018,1.018,0,0,1,.13.03.2.2,0,0,1,.085.053.149.149,0,0,1,.035.105.166.166,0,0,1-.077.144.365.365,0,0,1-.21.053.565.565,0,0,1-.157-.022" transform="translate(-232.887 -1653.458)" fill="#8282a8"/>
        <path id="Path_893" data-name="Path 893" d="M261.21,1710.229h-.539a.208.208,0,0,0,.077.141.252.252,0,0,0,.164.053.247.247,0,0,0,.192-.08l.066.078a.3.3,0,0,1-.112.08.424.424,0,0,1-.336-.016.308.308,0,0,1-.126-.121.347.347,0,0,1-.045-.176.353.353,0,0,1,.043-.174.309.309,0,0,1,.119-.121.339.339,0,0,1,.171-.043.333.333,0,0,1,.17.043.3.3,0,0,1,.117.121.369.369,0,0,1,.042.178.347.347,0,0,1,0,.036m-.471-.224a.212.212,0,0,0-.068.138h.426a.213.213,0,0,0-.068-.137.225.225,0,0,0-.289,0" transform="translate(-251.958 -1653.458)" fill="#8282a8"/>
        <path id="Path_894" data-name="Path 894" d="M284.5,1701.986v.93h-.115v-.105a.26.26,0,0,1-.1.084.313.313,0,0,1-.135.029.348.348,0,0,1-.173-.043.305.305,0,0,1-.12-.12.357.357,0,0,1-.043-.177.353.353,0,0,1,.043-.177.305.305,0,0,1,.12-.119.348.348,0,0,1,.173-.042.316.316,0,0,1,.132.027.256.256,0,0,1,.1.08v-.366Zm-.228.8a.207.207,0,0,0,.08-.083.273.273,0,0,0,0-.244.2.2,0,0,0-.08-.082.241.241,0,0,0-.229,0,.206.206,0,0,0-.08.082.268.268,0,0,0,0,.244.212.212,0,0,0,.08.083.236.236,0,0,0,.229,0" transform="translate(-274.448 -1645.852)" fill="#8282a8"/>
        <path id="Path_895" data-name="Path 895" d="M320.6,1710.229h-.539a.208.208,0,0,0,.077.141.252.252,0,0,0,.164.053.246.246,0,0,0,.192-.08l.066.078a.3.3,0,0,1-.112.08.4.4,0,0,1-.15.027.393.393,0,0,1-.187-.043.308.308,0,0,1-.126-.121.347.347,0,0,1-.044-.176.354.354,0,0,1,.043-.174.31.31,0,0,1,.119-.121.34.34,0,0,1,.171-.043.332.332,0,0,1,.17.043.3.3,0,0,1,.117.121.37.37,0,0,1,.042.178.347.347,0,0,1,0,.036m-.471-.224a.212.212,0,0,0-.068.138h.426a.213.213,0,0,0-.068-.137.225.225,0,0,0-.289,0" transform="translate(-309.392 -1653.458)" fill="#8282a8"/>
        <path id="Path_896" data-name="Path 896" d="M344.44,1701.55a.074.074,0,0,1-.023-.055.076.076,0,0,1,.023-.056.078.078,0,0,1,.058-.023.081.081,0,0,1,.058.022.072.072,0,0,1,.023.054.078.078,0,0,1-.023.057.085.085,0,0,1-.117,0m0,.15h.12v.664h-.12Z" transform="translate(-333.058 -1645.301)" fill="#8282a8"/>
        <path id="Path_897" data-name="Path 897" d="M356.1,1710.042v.664h-.114v-.1a.242.242,0,0,1-.1.08.3.3,0,0,1-.13.028.29.29,0,0,1-.209-.073.286.286,0,0,1-.076-.216v-.382h.12v.369a.206.206,0,0,0,.046.146.173.173,0,0,0,.133.05.2.2,0,0,0,.15-.058.227.227,0,0,0,.055-.163v-.344Z" transform="translate(-343.75 -1653.642)" fill="#8282a8"/>
        <path id="Path_898" data-name="Path 898" d="M378.962,1710.507a.346.346,0,0,1-.118-.056l.05-.1a.361.361,0,0,0,.107.05.441.441,0,0,0,.127.019q.158,0,.158-.09a.058.058,0,0,0-.021-.047.136.136,0,0,0-.053-.026c-.021-.005-.052-.011-.091-.018a.9.9,0,0,1-.131-.029.2.2,0,0,1-.087-.055.153.153,0,0,1-.036-.109.17.17,0,0,1,.075-.145.336.336,0,0,1,.2-.055.563.563,0,0,1,.133.016.357.357,0,0,1,.109.044l-.051.1a.345.345,0,0,0-.192-.053.221.221,0,0,0-.117.025.076.076,0,0,0-.04.066.063.063,0,0,0,.023.051.144.144,0,0,0,.056.028c.022.006.053.013.093.02a1.018,1.018,0,0,1,.13.03.2.2,0,0,1,.085.053.149.149,0,0,1,.035.105.166.166,0,0,1-.077.144.365.365,0,0,1-.21.053.565.565,0,0,1-.157-.022" transform="translate(-366.349 -1653.458)" fill="#8282a8"/>
        <path id="Path_899" data-name="Path 899" d="M401.457,1709.925a.291.291,0,0,1,.073.216v.382h-.12v-.369a.209.209,0,0,0-.044-.145.164.164,0,0,0-.127-.049.191.191,0,0,0-.145.057.229.229,0,0,0-.054.164v.342h-.12v-.369a.209.209,0,0,0-.044-.145.164.164,0,0,0-.127-.049.191.191,0,0,0-.145.057.229.229,0,0,0-.054.164v.342h-.12v-.664h.115v.1a.232.232,0,0,1,.1-.078.317.317,0,0,1,.134-.027.3.3,0,0,1,.138.031.219.219,0,0,1,.093.092.256.256,0,0,1,.1-.091.344.344,0,0,1,.151-.032.27.27,0,0,1,.2.073" transform="translate(-387.22 -1653.458)" fill="#8282a8"/>
        <path id="Path_900" data-name="Path 900" d="M439.013,1710.485a.316.316,0,0,1-.123-.121.365.365,0,0,1,0-.35.312.312,0,0,1,.123-.12.387.387,0,0,1,.355,0,.314.314,0,0,1,.123.12.366.366,0,0,1,0,.35.318.318,0,0,1-.123.121.381.381,0,0,1-.355,0m.293-.091a.208.208,0,0,0,.08-.083.273.273,0,0,0,0-.244.2.2,0,0,0-.08-.082.243.243,0,0,0-.229,0,.208.208,0,0,0-.08.082.268.268,0,0,0,0,.244.212.212,0,0,0,.08.083.237.237,0,0,0,.229,0" transform="translate(-424.371 -1653.458)" fill="#8282a8"/>
        <path id="Path_901" data-name="Path 901" d="M463.663,1701.986v.93h-.115v-.105a.26.26,0,0,1-.1.084.314.314,0,0,1-.135.029.348.348,0,0,1-.173-.043.305.305,0,0,1-.12-.12.356.356,0,0,1-.043-.177.352.352,0,0,1,.043-.177.305.305,0,0,1,.12-.119.348.348,0,0,1,.173-.042.316.316,0,0,1,.132.027.257.257,0,0,1,.1.08v-.366Zm-.228.8a.207.207,0,0,0,.08-.083.274.274,0,0,0,0-.244.2.2,0,0,0-.08-.082.241.241,0,0,0-.229,0,.206.206,0,0,0-.08.082.268.268,0,0,0,0,.244.213.213,0,0,0,.08.083.236.236,0,0,0,.229,0" transform="translate(-447.705 -1645.852)" fill="#8282a8"/>
        <path id="Path_902" data-name="Path 902" d="M498.554,1706.406a.18.18,0,0,1-.065.034.269.269,0,0,1-.08.012.213.213,0,0,1-.155-.054.205.205,0,0,1-.055-.154v-.365h-.113v-.1h.113v-.145h.12v.145h.19v.1h-.19v.36a.116.116,0,0,0,.027.083.1.1,0,0,0,.077.029.146.146,0,0,0,.094-.031Z" transform="translate(-481.657 -1649.38)" fill="#8282a8"/>
        <path id="Path_903" data-name="Path 903" d="M514.818,1710.229h-.539a.208.208,0,0,0,.077.141.252.252,0,0,0,.164.053.247.247,0,0,0,.192-.08l.066.078a.3.3,0,0,1-.112.08.424.424,0,0,1-.336-.016.308.308,0,0,1-.126-.121.346.346,0,0,1-.044-.176.354.354,0,0,1,.043-.174.31.31,0,0,1,.119-.121.339.339,0,0,1,.171-.043.332.332,0,0,1,.17.043.3.3,0,0,1,.117.121.37.37,0,0,1,.042.178.331.331,0,0,1,0,.036m-.471-.224a.212.212,0,0,0-.068.138h.426a.213.213,0,0,0-.068-.137.225.225,0,0,0-.29,0" transform="translate(-497.201 -1653.458)" fill="#8282a8"/>
        <path id="Path_904" data-name="Path 904" d="M540.306,1709.925a.291.291,0,0,1,.073.216v.382h-.12v-.369a.209.209,0,0,0-.044-.145.164.164,0,0,0-.127-.049.191.191,0,0,0-.145.057.229.229,0,0,0-.054.164v.342h-.12v-.369a.21.21,0,0,0-.044-.145.164.164,0,0,0-.127-.049.191.191,0,0,0-.145.057.229.229,0,0,0-.054.164v.342h-.12v-.664h.115v.1a.231.231,0,0,1,.1-.078.318.318,0,0,1,.134-.027.3.3,0,0,1,.138.031.218.218,0,0,1,.093.092.256.256,0,0,1,.1-.091.344.344,0,0,1,.151-.032.27.27,0,0,1,.2.073" transform="translate(-521.49 -1653.458)" fill="#8282a8"/>
        <path id="Path_905" data-name="Path 905" d="M579.967,1709.894a.308.308,0,0,1,.12.119.385.385,0,0,1,0,.354.3.3,0,0,1-.12.119.347.347,0,0,1-.173.043.309.309,0,0,1-.131-.027.276.276,0,0,1-.1-.08v.343h-.12v-.907h.115v.105a.252.252,0,0,1,.1-.083.32.32,0,0,1,.135-.028.35.35,0,0,1,.173.042m-.068.5a.212.212,0,0,0,.08-.083.268.268,0,0,0,0-.244.208.208,0,0,0-.08-.082.23.23,0,0,0-.115-.029.223.223,0,0,0-.113.03.212.212,0,0,0-.08.082.245.245,0,0,0-.029.122.253.253,0,0,0,.029.122.206.206,0,0,0,.08.083.236.236,0,0,0,.229,0" transform="translate(-560.331 -1653.458)" fill="#8282a8"/>
        <path id="Path_906" data-name="Path 906" d="M603.664,1710.485a.317.317,0,0,1-.123-.121.365.365,0,0,1,0-.35.312.312,0,0,1,.123-.12.387.387,0,0,1,.355,0,.314.314,0,0,1,.123.12.366.366,0,0,1,0,.35.319.319,0,0,1-.123.121.381.381,0,0,1-.355,0m.293-.091a.208.208,0,0,0,.08-.083.274.274,0,0,0,0-.244.2.2,0,0,0-.08-.082.243.243,0,0,0-.229,0,.208.208,0,0,0-.08.082.269.269,0,0,0,0,.244.211.211,0,0,0,.08.083.237.237,0,0,0,.229,0" transform="translate(-583.592 -1653.458)" fill="#8282a8"/>
        <path id="Path_907" data-name="Path 907" d="M629.7,1709.882a.337.337,0,0,1,.149-.03v.116h-.027a.2.2,0,0,0-.154.058.23.23,0,0,0-.056.166v.331h-.12v-.664h.115v.112a.208.208,0,0,1,.093-.088" transform="translate(-608.727 -1653.458)" fill="#8282a8"/>
        <path id="Path_908" data-name="Path 908" d="M654.666,1701.55a.074.074,0,0,1-.023-.055.076.076,0,0,1,.023-.056.078.078,0,0,1,.058-.023.081.081,0,0,1,.058.022.072.072,0,0,1,.023.054.078.078,0,0,1-.023.057.085.085,0,0,1-.117,0m0,.15h.12v.664h-.12Z" transform="translate(-633.052 -1645.301)" fill="#8282a8"/>
        <path id="Path_909" data-name="Path 909" d="M666.446,1709.924a.288.288,0,0,1,.075.215v.382h-.12v-.369a.2.2,0,0,0-.046-.145.174.174,0,0,0-.133-.049.207.207,0,0,0-.154.057.223.223,0,0,0-.056.164v.342h-.12v-.664h.115v.1a.234.234,0,0,1,.1-.079.345.345,0,0,1,.141-.028.275.275,0,0,1,.2.073" transform="translate(-643.928 -1653.458)" fill="#8282a8"/>
        <path id="Path_910" data-name="Path 910" d="M690.191,1710.485a.321.321,0,0,1-.125-.121.361.361,0,0,1,0-.35.316.316,0,0,1,.125-.12.373.373,0,0,1,.181-.043.349.349,0,0,1,.161.036.259.259,0,0,1,.11.105l-.091.059a.2.2,0,0,0-.078-.072.221.221,0,0,0-.1-.024.239.239,0,0,0-.117.029.205.205,0,0,0-.082.082.248.248,0,0,0-.029.122.252.252,0,0,0,.029.124.206.206,0,0,0,.082.082.237.237,0,0,0,.117.029.221.221,0,0,0,.1-.024.2.2,0,0,0,.078-.072l.091.058a.264.264,0,0,1-.11.106.343.343,0,0,1-.161.037.368.368,0,0,1-.181-.044" transform="translate(-667.263 -1653.458)" fill="#8282a8"/>
        <path id="Path_911" data-name="Path 911" d="M712.957,1701.55a.074.074,0,0,1-.023-.055.076.076,0,0,1,.023-.056.078.078,0,0,1,.058-.023.081.081,0,0,1,.058.022.072.072,0,0,1,.023.054.078.078,0,0,1-.023.057.085.085,0,0,1-.117,0m0,.15h.12v.664h-.12Z" transform="translate(-689.42 -1645.301)" fill="#8282a8"/>
        <path id="Path_912" data-name="Path 912" d="M723.008,1701.986v.93h-.115v-.105a.261.261,0,0,1-.1.084.314.314,0,0,1-.135.029.348.348,0,0,1-.173-.043.306.306,0,0,1-.12-.12.357.357,0,0,1-.043-.177.353.353,0,0,1,.043-.177.306.306,0,0,1,.12-.119.348.348,0,0,1,.173-.042.317.317,0,0,1,.132.027.256.256,0,0,1,.1.08v-.366Zm-.228.8a.206.206,0,0,0,.08-.083.274.274,0,0,0,0-.244.2.2,0,0,0-.08-.082.241.241,0,0,0-.229,0,.206.206,0,0,0-.08.082.268.268,0,0,0,0,.244.213.213,0,0,0,.08.083.236.236,0,0,0,.229,0" transform="translate(-698.497 -1645.852)" fill="#8282a8"/>
        <path id="Path_913" data-name="Path 913" d="M749.475,1701.55a.074.074,0,0,1-.023-.055.076.076,0,0,1,.023-.056.078.078,0,0,1,.058-.023.081.081,0,0,1,.058.022.072.072,0,0,1,.023.054.078.078,0,0,1-.023.057.085.085,0,0,1-.117,0m0,.15h.12v.664h-.12Z" transform="translate(-724.734 -1645.301)" fill="#8282a8"/>
        <path id="Path_914" data-name="Path 914" d="M759.526,1701.986v.93h-.115v-.105a.259.259,0,0,1-.1.084.313.313,0,0,1-.135.029.347.347,0,0,1-.173-.043.3.3,0,0,1-.12-.12.355.355,0,0,1-.043-.177.352.352,0,0,1,.043-.177.3.3,0,0,1,.12-.119.347.347,0,0,1,.173-.042.317.317,0,0,1,.132.027.255.255,0,0,1,.1.08v-.366Zm-.228.8a.207.207,0,0,0,.08-.083.274.274,0,0,0,0-.244.2.2,0,0,0-.08-.082.241.241,0,0,0-.229,0,.206.206,0,0,0-.08.082.268.268,0,0,0,0,.244.213.213,0,0,0,.08.083.236.236,0,0,0,.229,0" transform="translate(-733.81 -1645.852)" fill="#8282a8"/>
        <path id="Path_915" data-name="Path 915" d="M787.051,1710.042v.664h-.114v-.1a.242.242,0,0,1-.1.08.3.3,0,0,1-.13.028.29.29,0,0,1-.209-.073.286.286,0,0,1-.076-.216v-.382h.12v.369a.206.206,0,0,0,.046.146.173.173,0,0,0,.133.05.2.2,0,0,0,.151-.058.228.228,0,0,0,.055-.163v-.344Z" transform="translate(-760.488 -1653.642)" fill="#8282a8"/>
        <path id="Path_916" data-name="Path 916" d="M812.9,1709.924a.288.288,0,0,1,.075.215v.382h-.12v-.369a.2.2,0,0,0-.046-.145.174.174,0,0,0-.133-.049.207.207,0,0,0-.154.057.223.223,0,0,0-.056.164v.342h-.12v-.664h.115v.1a.233.233,0,0,1,.1-.079.345.345,0,0,1,.141-.028.275.275,0,0,1,.2.073" transform="translate(-785.549 -1653.458)" fill="#8282a8"/>
        <path id="Path_917" data-name="Path 917" d="M835.8,1706.406a.18.18,0,0,1-.065.034.268.268,0,0,1-.08.012.213.213,0,0,1-.155-.054.205.205,0,0,1-.055-.154v-.365h-.113v-.1h.113v-.145h.12v.145h.191v.1h-.191v.36a.117.117,0,0,0,.027.083.1.1,0,0,0,.077.029.146.146,0,0,0,.094-.031Z" transform="translate(-807.781 -1649.38)" fill="#8282a8"/>
        <path id="Path_918" data-name="Path 918" d="M864.607,1710.042v.664h-.114v-.1a.244.244,0,0,1-.1.08.3.3,0,0,1-.13.028.29.29,0,0,1-.209-.073.286.286,0,0,1-.076-.216v-.382h.12v.369a.206.206,0,0,0,.046.146.173.173,0,0,0,.133.05.2.2,0,0,0,.15-.058.227.227,0,0,0,.055-.163v-.344Z" transform="translate(-835.486 -1653.642)" fill="#8282a8"/>
        <path id="Path_919" data-name="Path 919" d="M887.48,1706.406a.18.18,0,0,1-.065.034.268.268,0,0,1-.08.012.213.213,0,0,1-.155-.054.206.206,0,0,1-.055-.154v-.365h-.113v-.1h.113v-.145h.12v.145h.191v.1h-.191v.36a.117.117,0,0,0,.027.083.1.1,0,0,0,.077.029.146.146,0,0,0,.094-.031Z" transform="translate(-857.756 -1649.38)" fill="#8282a8"/>
        <rect id="Rectangle_902" data-name="Rectangle 902" width="0.12" height="0.93" transform="translate(5.408 57.948)" fill="#8282a8"/>
        <path id="Path_920" data-name="Path 920" d="M173.506,1764.92a.261.261,0,0,1,.073.2v.4h-.114v-.088a.188.188,0,0,1-.086.071.322.322,0,0,1-.132.025.277.277,0,0,1-.179-.054.173.173,0,0,1-.067-.142.175.175,0,0,1,.064-.141.316.316,0,0,1,.2-.053h.19v-.024a.154.154,0,0,0-.045-.119.191.191,0,0,0-.133-.041.352.352,0,0,0-.115.02.3.3,0,0,0-.1.052l-.05-.09a.36.36,0,0,1,.123-.063.521.521,0,0,1,.152-.022.3.3,0,0,1,.211.068m-.12.487a.176.176,0,0,0,.073-.087v-.093h-.185c-.1,0-.153.034-.153.1a.093.093,0,0,0,.039.079.179.179,0,0,0,.108.029.223.223,0,0,0,.119-.031" transform="translate(-167.296 -1706.645)" fill="#8282a8"/>
        <path id="Path_921" data-name="Path 921" d="M197.808,1757.288a.307.307,0,0,1,.12.119.384.384,0,0,1,0,.354.306.306,0,0,1-.12.12.35.35,0,0,1-.173.042.313.313,0,0,1-.135-.029.26.26,0,0,1-.1-.084v.105h-.115v-.93h.12v.366a.256.256,0,0,1,.1-.08.321.321,0,0,1,.132-.027.347.347,0,0,1,.173.043m-.068.5a.212.212,0,0,0,.08-.083.269.269,0,0,0,0-.245.209.209,0,0,0-.08-.082.241.241,0,0,0-.229,0,.2.2,0,0,0-.08.082.274.274,0,0,0,0,.245.206.206,0,0,0,.08.083.236.236,0,0,0,.229,0" transform="translate(-190.776 -1699.038)" fill="#8282a8"/>
        <path id="Path_922" data-name="Path 922" d="M221.5,1765.485a.319.319,0,0,1-.123-.121.366.366,0,0,1,0-.35.316.316,0,0,1,.123-.12.387.387,0,0,1,.355,0,.317.317,0,0,1,.123.12.366.366,0,0,1,0,.35.32.32,0,0,1-.123.121.381.381,0,0,1-.355,0m.293-.091a.21.21,0,0,0,.08-.083.274.274,0,0,0,0-.245.2.2,0,0,0-.08-.082.243.243,0,0,0-.229,0,.209.209,0,0,0-.08.082.269.269,0,0,0,0,.245.214.214,0,0,0,.08.083.239.239,0,0,0,.229,0" transform="translate(-214.037 -1706.644)" fill="#8282a8"/>
        <path id="Path_923" data-name="Path 923" d="M247.537,1764.882a.337.337,0,0,1,.149-.03v.116h-.028a.2.2,0,0,0-.154.058.231.231,0,0,0-.056.166v.331h-.12v-.664h.115v.112a.2.2,0,0,1,.093-.088" transform="translate(-239.172 -1706.645)" fill="#8282a8"/>
        <path id="Path_924" data-name="Path 924" d="M261.25,1765.23h-.539a.208.208,0,0,0,.077.141.252.252,0,0,0,.164.053.246.246,0,0,0,.192-.08l.066.078a.289.289,0,0,1-.112.08.42.42,0,0,1-.337-.016.308.308,0,0,1-.126-.121.347.347,0,0,1-.044-.176.352.352,0,0,1,.043-.174.31.31,0,0,1,.119-.121.339.339,0,0,1,.171-.043.333.333,0,0,1,.17.043.3.3,0,0,1,.117.121.368.368,0,0,1,.042.178.358.358,0,0,1,0,.036m-.471-.224a.212.212,0,0,0-.068.138h.426a.214.214,0,0,0-.068-.137.224.224,0,0,0-.289,0" transform="translate(-251.996 -1706.644)" fill="#8282a8"/>
        <path id="Path_925" data-name="Path 925" d="M294.727,1765.23h-.539a.208.208,0,0,0,.077.141.252.252,0,0,0,.164.053.246.246,0,0,0,.192-.08l.066.078a.289.289,0,0,1-.112.08.42.42,0,0,1-.336-.016.308.308,0,0,1-.126-.121.347.347,0,0,1-.045-.176.351.351,0,0,1,.043-.174.31.31,0,0,1,.119-.121.339.339,0,0,1,.171-.043.333.333,0,0,1,.17.043.3.3,0,0,1,.117.121.369.369,0,0,1,.042.178c0,.009,0,.021,0,.036m-.471-.224a.212.212,0,0,0-.068.138h.426a.214.214,0,0,0-.068-.137.206.206,0,0,0-.145-.053.208.208,0,0,0-.145.053" transform="translate(-284.369 -1706.644)" fill="#8282a8"/>
        <path id="Path_926" data-name="Path 926" d="M316.767,1761.406a.184.184,0,0,1-.065.034.276.276,0,0,1-.08.012.212.212,0,0,1-.155-.054.205.205,0,0,1-.055-.154v-.365H316.3v-.1h.113v-.146h.12v.146h.19v.1h-.19v.36a.117.117,0,0,0,.027.083.1.1,0,0,0,.077.029.145.145,0,0,0,.094-.031Z" transform="translate(-305.866 -1702.566)" fill="#8282a8"/>
        <path id="Path_927" data-name="Path 927" d="M343.966,1756.986v.93h-.115v-.105a.26.26,0,0,1-.1.084.314.314,0,0,1-.135.029.35.35,0,0,1-.173-.042.306.306,0,0,1-.12-.12.384.384,0,0,1,0-.354.307.307,0,0,1,.12-.119.347.347,0,0,1,.173-.043.321.321,0,0,1,.132.027.257.257,0,0,1,.1.08v-.366Zm-.228.8a.206.206,0,0,0,.08-.083.274.274,0,0,0,0-.245.2.2,0,0,0-.08-.082.241.241,0,0,0-.229,0,.21.21,0,0,0-.08.082.269.269,0,0,0,0,.245.212.212,0,0,0,.08.083.236.236,0,0,0,.229,0" transform="translate(-331.956 -1699.038)" fill="#8282a8"/>
        <path id="Path_928" data-name="Path 928" d="M369.361,1765.485a.318.318,0,0,1-.123-.121.366.366,0,0,1,0-.35.316.316,0,0,1,.123-.12.387.387,0,0,1,.355,0,.317.317,0,0,1,.123.12.367.367,0,0,1,0,.35.32.32,0,0,1-.123.121.381.381,0,0,1-.355,0m.293-.091a.21.21,0,0,0,.08-.083.274.274,0,0,0,0-.245.205.205,0,0,0-.08-.082.243.243,0,0,0-.229,0,.21.21,0,0,0-.08.082.269.269,0,0,0,0,.245.215.215,0,0,0,.08.083.239.239,0,0,0,.229,0" transform="translate(-357.016 -1706.644)" fill="#8282a8"/>
        <rect id="Rectangle_903" data-name="Rectangle 903" width="0.12" height="0.93" transform="translate(13.034 57.948)" fill="#8282a8"/>
        <path id="Path_929" data-name="Path 929" d="M404.093,1765.485a.319.319,0,0,1-.123-.121.366.366,0,0,1,0-.35.316.316,0,0,1,.123-.12.387.387,0,0,1,.355,0,.317.317,0,0,1,.123.12.366.366,0,0,1,0,.35.32.32,0,0,1-.123.121.381.381,0,0,1-.355,0m.293-.091a.21.21,0,0,0,.08-.083.274.274,0,0,0,0-.245.2.2,0,0,0-.08-.082.243.243,0,0,0-.229,0,.209.209,0,0,0-.08.082.269.269,0,0,0,0,.245.214.214,0,0,0,.08.083.239.239,0,0,0,.229,0" transform="translate(-390.603 -1706.644)" fill="#8282a8"/>
        <path id="Path_930" data-name="Path 930" d="M430.125,1764.882a.337.337,0,0,1,.149-.03v.116h-.028a.2.2,0,0,0-.154.058.231.231,0,0,0-.056.166v.331h-.12v-.664h.115v.112a.2.2,0,0,1,.093-.088" transform="translate(-415.738 -1706.645)" fill="#8282a8"/>
        <path id="Path_931" data-name="Path 931" d="M443.836,1765.23H443.3a.208.208,0,0,0,.077.141.252.252,0,0,0,.164.053.246.246,0,0,0,.192-.08l.066.078a.289.289,0,0,1-.112.08.42.42,0,0,1-.336-.016.308.308,0,0,1-.126-.121.346.346,0,0,1-.045-.176.351.351,0,0,1,.043-.174.309.309,0,0,1,.119-.121.339.339,0,0,1,.171-.043.333.333,0,0,1,.17.043.3.3,0,0,1,.117.121.368.368,0,0,1,.042.178.342.342,0,0,1,0,.036m-.471-.224a.211.211,0,0,0-.068.138h.426a.214.214,0,0,0-.068-.137.224.224,0,0,0-.289,0" transform="translate(-428.56 -1706.644)" fill="#8282a8"/>
        <path id="Path_932" data-name="Path 932" d="M479.547,1764.925a.291.291,0,0,1,.073.216v.382h-.12v-.368a.21.21,0,0,0-.045-.146.164.164,0,0,0-.127-.049.19.19,0,0,0-.145.057.229.229,0,0,0-.054.164v.342h-.12v-.368a.21.21,0,0,0-.044-.146.164.164,0,0,0-.127-.049.19.19,0,0,0-.145.057.229.229,0,0,0-.054.164v.342h-.12v-.664h.115v.1a.234.234,0,0,1,.1-.078.317.317,0,0,1,.134-.027.3.3,0,0,1,.138.031.219.219,0,0,1,.093.091.254.254,0,0,1,.1-.09.341.341,0,0,1,.151-.032.27.27,0,0,1,.2.073" transform="translate(-462.735 -1706.645)" fill="#8282a8"/>
        <path id="Path_933" data-name="Path 933" d="M517.629,1764.92a.261.261,0,0,1,.073.2v.4h-.114v-.088a.189.189,0,0,1-.086.071.323.323,0,0,1-.132.025.277.277,0,0,1-.179-.054.185.185,0,0,1,0-.283.316.316,0,0,1,.2-.053h.191v-.024a.154.154,0,0,0-.045-.119.191.191,0,0,0-.133-.041.351.351,0,0,0-.115.02.3.3,0,0,0-.1.052l-.05-.09a.359.359,0,0,1,.123-.063.521.521,0,0,1,.152-.022.3.3,0,0,1,.211.068m-.12.487a.177.177,0,0,0,.073-.087v-.093H517.4c-.1,0-.153.034-.153.1a.093.093,0,0,0,.039.079.179.179,0,0,0,.108.029.223.223,0,0,0,.119-.031" transform="translate(-500.069 -1706.645)" fill="#8282a8"/>
        <path id="Path_934" data-name="Path 934" d="M540.356,1764.857v.574a.343.343,0,0,1-.086.258.359.359,0,0,1-.258.083.619.619,0,0,1-.179-.026.353.353,0,0,1-.138-.073l.058-.093a.341.341,0,0,0,.115.063.438.438,0,0,0,.141.023.236.236,0,0,0,.172-.055.226.226,0,0,0,.056-.168v-.053a.266.266,0,0,1-.1.077.349.349,0,0,1-.135.026.363.363,0,0,1-.172-.041.3.3,0,0,1-.121-.114.341.341,0,0,1,0-.335.3.3,0,0,1,.121-.113.366.366,0,0,1,.172-.04.354.354,0,0,1,.14.028.261.261,0,0,1,.106.082v-.1Zm-.229.5a.2.2,0,0,0,.081-.077.216.216,0,0,0,.029-.112.2.2,0,0,0-.064-.156.258.258,0,0,0-.33,0,.2.2,0,0,0-.064.156.215.215,0,0,0,.029.112.2.2,0,0,0,.081.077.263.263,0,0,0,.236,0" transform="translate(-521.86 -1706.644)" fill="#8282a8"/>
        <path id="Path_935" data-name="Path 935" d="M568.3,1764.925a.288.288,0,0,1,.075.215v.382h-.12v-.368a.2.2,0,0,0-.046-.146.174.174,0,0,0-.133-.049.208.208,0,0,0-.154.057.223.223,0,0,0-.056.164v.342h-.12v-.664h.115v.1a.236.236,0,0,1,.1-.079.345.345,0,0,1,.141-.028.274.274,0,0,1,.2.073" transform="translate(-549.015 -1706.644)" fill="#8282a8"/>
        <path id="Path_936" data-name="Path 936" d="M592.565,1764.92a.261.261,0,0,1,.073.2v.4h-.114v-.088a.189.189,0,0,1-.086.071.323.323,0,0,1-.132.025.277.277,0,0,1-.179-.054.173.173,0,0,1-.067-.142.175.175,0,0,1,.064-.141.316.316,0,0,1,.2-.053h.19v-.024a.155.155,0,0,0-.045-.119.192.192,0,0,0-.133-.041.352.352,0,0,0-.115.02.3.3,0,0,0-.1.052l-.05-.09a.36.36,0,0,1,.123-.063.521.521,0,0,1,.152-.022.3.3,0,0,1,.211.068m-.12.487a.176.176,0,0,0,.073-.087v-.093h-.185c-.1,0-.153.034-.153.1a.093.093,0,0,0,.039.079.179.179,0,0,0,.108.029.223.223,0,0,0,.119-.031" transform="translate(-572.534 -1706.645)" fill="#8282a8"/>
        <path id="Path_937" data-name="Path 937" d="M625.51,1764.92a.261.261,0,0,1,.073.2v.4h-.114v-.088a.189.189,0,0,1-.086.071.323.323,0,0,1-.132.025.277.277,0,0,1-.179-.054.173.173,0,0,1-.067-.142.175.175,0,0,1,.064-.141.315.315,0,0,1,.2-.053h.19v-.024a.155.155,0,0,0-.045-.119.192.192,0,0,0-.133-.041.351.351,0,0,0-.115.02.3.3,0,0,0-.1.052l-.05-.09a.36.36,0,0,1,.123-.063.521.521,0,0,1,.152-.022.3.3,0,0,1,.211.068m-.12.487a.176.176,0,0,0,.073-.087v-.093h-.185c-.1,0-.153.034-.153.1a.093.093,0,0,0,.039.079.179.179,0,0,0,.108.029.223.223,0,0,0,.119-.031" transform="translate(-604.392 -1706.645)" fill="#8282a8"/>
        <rect id="Rectangle_904" data-name="Rectangle 904" width="0.12" height="0.93" transform="translate(21.415 57.948)" fill="#8282a8"/>
        <path id="Path_938" data-name="Path 938" d="M659.265,1756.55a.074.074,0,0,1-.023-.055.076.076,0,0,1,.023-.056.079.079,0,0,1,.058-.023.082.082,0,0,1,.058.022.072.072,0,0,1,.023.054.077.077,0,0,1-.023.057.079.079,0,0,1-.058.023.081.081,0,0,1-.058-.022m0,.15h.12v.664h-.12Z" transform="translate(-637.499 -1698.487)" fill="#8282a8"/>
        <path id="Path_939" data-name="Path 939" d="M669.316,1764.857v.907h-.12v-.344a.271.271,0,0,1-.1.08.306.306,0,0,1-.131.028.35.35,0,0,1-.173-.043.3.3,0,0,1-.12-.12.384.384,0,0,1,0-.354.306.306,0,0,1,.12-.119.35.35,0,0,1,.173-.043.32.32,0,0,1,.135.028.256.256,0,0,1,.1.083v-.105Zm-.228.537a.208.208,0,0,0,.08-.083.252.252,0,0,0,.029-.122.243.243,0,0,0-.029-.121.214.214,0,0,0-.08-.082.223.223,0,0,0-.113-.03.23.23,0,0,0-.115.029.209.209,0,0,0-.08.082.269.269,0,0,0,0,.245.214.214,0,0,0,.08.083.238.238,0,0,0,.229,0" transform="translate(-646.576 -1706.644)" fill="#8282a8"/>
        <path id="Path_940" data-name="Path 940" d="M696.841,1765.042v.664h-.114v-.1a.243.243,0,0,1-.1.08.3.3,0,0,1-.13.028.29.29,0,0,1-.209-.073.286.286,0,0,1-.077-.216v-.382h.12v.368a.206.206,0,0,0,.047.146.173.173,0,0,0,.133.05.2.2,0,0,0,.15-.058.227.227,0,0,0,.055-.163v-.344Z" transform="translate(-673.254 -1706.828)" fill="#8282a8"/>
        <path id="Path_941" data-name="Path 941" d="M721.078,1764.92a.261.261,0,0,1,.073.2v.4h-.114v-.088a.189.189,0,0,1-.086.071.322.322,0,0,1-.132.025.277.277,0,0,1-.179-.054.185.185,0,0,1,0-.283.315.315,0,0,1,.2-.053h.19v-.024a.154.154,0,0,0-.045-.119.191.191,0,0,0-.133-.041.351.351,0,0,0-.115.02.3.3,0,0,0-.1.052l-.05-.09a.36.36,0,0,1,.123-.063.521.521,0,0,1,.152-.022.3.3,0,0,1,.211.068m-.12.487a.176.176,0,0,0,.073-.087v-.093h-.185c-.1,0-.153.034-.153.1a.093.093,0,0,0,.039.079.179.179,0,0,0,.108.029.224.224,0,0,0,.119-.031" transform="translate(-696.808 -1706.645)" fill="#8282a8"/>
        <path id="Path_942" data-name="Path 942" d="M743.17,1780.351a.086.086,0,0,1,.06-.147.08.08,0,0,1,.059.024.091.091,0,0,1,0,.123.079.079,0,0,1-.058.024.083.083,0,0,1-.06-.024" transform="translate(-718.635 -1721.49)" fill="#8282a8"/>
      </g>
    </g>
    <path id="rupee-solid" d="M12.938,2A10.938,10.938,0,1,0,23.875,12.938,10.938,10.938,0,0,0,12.938,2Zm4.02,6.152h1.449a.684.684,0,0,1,0,1.367H17.217v.13a4.163,4.163,0,0,1-4.1,4.238H11.748L16.41,19.4A.856.856,0,0,1,15.1,20.5L9.267,13.58a.854.854,0,0,1,.684-1.408h3.22a2.454,2.454,0,0,0,2.379-2.522V9.513H9.4a.684.684,0,0,1,0-1.367h5.687a2.331,2.331,0,0,0-1.9-1.025H9.349a.854.854,0,0,1,0-1.709h9.058a.684.684,0,0,1,0,1.367h-2.27a4.259,4.259,0,0,1,.82,1.374Z" transform="translate(743.555 745.355)" fill="#00a483"/>
  </g>
</svg>
